<?xml version="1.0" encoding="UTF-8"?>
<svg viewBox="0 0 200.8 90.039749" xmlns="http://www.w3.org/2000/svg" xmlns:xlink="http://www.w3.org/1999/xlink">
 <defs>
  <filter id="b">
   <feGaussianBlur stdDeviation="4.0231"/>
  </filter>
  <filter id="j" x="-.02047" y="-.10033" width="1.041" height="1.2006">
   <feGaussianBlur stdDeviation="4.0887"/>
  </filter>
  <linearGradient id="a">
   <stop stop-color="#eee" offset="0"/>
   <stop offset="1"/>
  </linearGradient>
  <linearGradient id="g" x1="595" x2="308.57" y1="365.22" y2="210.22" gradientUnits="userSpaceOnUse">
   <stop stop-color="#980101" offset="0"/>
   <stop stop-color="#980101" stop-opacity="0" offset="1"/>
  </linearGradient>
  <linearGradient id="f" x1="170.71" x2="451.43" y1="365.93" y2="213.08" gradientUnits="userSpaceOnUse">
   <stop stop-color="#369" offset="0"/>
   <stop stop-color="#369" stop-opacity="0" offset="1"/>
  </linearGradient>
  <linearGradient id="i" x1="278.26" x2="122.87" y1="179.04" y2="442.85" gradientTransform="matrix(-1 0 0 1 771.83 0)" gradientUnits="userSpaceOnUse" xlink:href="#a"/>
  <linearGradient id="h" x1="278.26" x2="122.87" y1="179.04" y2="442.85" gradientUnits="userSpaceOnUse" xlink:href="#a"/>
  <linearGradient id="e" x1="377.14" x2="375.71" y1="268.08" y2="458.08" gradientUnits="userSpaceOnUse" xlink:href="#a"/>
  <radialGradient id="d" cx="257.86" cy="325.84" r="61.786" gradientTransform="matrix(2.0643 .04242 -.03868 1.8813 -261.84 -300.87)" gradientUnits="userSpaceOnUse">
   <stop stop-color="#369" offset="0"/>
   <stop offset="1"/>
  </radialGradient>
  <radialGradient id="c" cx="257.86" cy="325.84" r="61.786" gradientTransform="matrix(2.0643 .04242 -.03868 1.8813 -11.125 -300.87)" gradientUnits="userSpaceOnUse">
   <stop stop-color="#980101" offset="0"/>
   <stop offset="1"/>
  </radialGradient>
 </defs>
 <g transform="matrix(.41078 0 0 .41078 -57.451 -69.783)">
  <path transform="matrix(-1 0 0 1 771.83 0)" d="m153.77 290.73 179.98-105.56c18.295-17.503 48.278 18.822 50.082 33.674 1.0986 13.049-10.488 31.995-23.571 31.429-14.851-0.64346-23.571-37.857-23.571-37.857l-77.367 74.146-79.232 83.574z" filter="url(#b)" opacity=".3045"/>
  <path d="m624.28 276.41-191.01-100.87c-18.295-17.503-48.278 18.822-50.082 33.674-1.0986 13.049 10.488 31.995 23.571 31.429 14.851-0.64346 23.571-37.857 23.571-37.857l78.571 65.714 80.436 102.85z" fill="url(#i)"/>
  <path d="m150.49 294.48 183.25-109.3c18.295-17.503 48.278 18.822 50.082 33.674 1.0986 13.049-10.488 31.995-23.571 31.429-14.851-0.64346-23.571-37.857-23.571-37.857l-77.367 74.146-79.232 83.574z" filter="url(#b)" opacity=".3045"/>
  <path d="m147.55 276.41 191.01-100.87c18.295-17.503 48.278 18.822 50.082 33.674 1.0986 13.049-10.488 31.995-23.571 31.429-14.851-0.64346-23.571-37.857-23.571-37.857l-78.571 65.714-80.436 102.85z" fill="url(#h)"/>
  <path d="m464.8 288.79h83.971a19.8 19.8 0 0 1 19.8 19.8v23.257a19.8 19.8 0 0 1 -19.8 19.8h-83.971a19.8 19.8 0 0 1 -19.8 -19.8v-23.257a19.8 19.8 0 0 1 19.8 -19.8" fill="url(#g)"/>
  <path d="m214.09 288.79h83.971a19.8 19.8 0 0 1 19.8 19.8v23.257a19.8 19.8 0 0 1 -19.8 19.8h-83.971a19.8 19.8 0 0 1 -19.8 -19.8v-23.257a19.8 19.8 0 0 1 19.8 -19.8" fill="url(#f)"/>
  <path transform="matrix(.9654 0 0 1 11.268 0)" d="m146 280.48-3e-3 89.291h11.853l5.0474 8.4905h183.1c28.708-0.94008 4.257-36.176 36.062-36.406s11.901 37.65 42.5 36.406h183.79l6.0956-8.4905 10.837 0.13503v-89.426zm69.094 14.281h83.969c10.969 0 19.781 8.8433 19.781 19.812v23.25c0 10.969-8.812 19.812-19.781 19.812h-83.969c-10.969 0-19.812-8.8433-19.812-19.812v-23.25c0-10.969 8.8433-19.812 19.812-19.812zm250.72 0h83.969c10.969 0 19.781 8.8433 19.781 19.812v23.25c0 10.969-8.812 19.812-19.781 19.812h-83.969c-10.969 0-19.812-8.8433-19.812-19.812v-23.25c0-10.969 8.8433-19.812 19.812-19.812z" filter="url(#j)" opacity=".6091"/>
  <path d="m145 274.5-3e-3 89.291h11.853l5.0474 8.4905h183.1c28.708-0.94008 4.257-36.176 36.062-36.406s11.901 37.65 42.5 36.406h183.79l6.0956-8.4905 10.837 0.13503v-89.426zm69.094 14.281h83.969c10.969 0 19.781 8.8433 19.781 19.812v23.25c0 10.969-8.812 19.812-19.781 19.812h-83.969c-10.969 0-19.812-8.8433-19.812-19.812v-23.25c0-10.969 8.8433-19.812 19.812-19.812zm250.72 0h83.969c10.969 0 19.781 8.8433 19.781 19.812v23.25c0 10.969-8.812 19.812-19.781 19.812h-83.969c-10.969 0-19.812-8.8433-19.812-19.812v-23.25c0-10.969 8.8433-19.812 19.812-19.812z" fill="url(#e)"/>
  <path d="m214.09 288.79h83.971a19.8 19.8 0 0 1 19.8 19.8v23.257a19.8 19.8 0 0 1 -19.8 19.8h-83.971a19.8 19.8 0 0 1 -19.8 -19.8v-23.257a19.8 19.8 0 0 1 19.8 -19.8" fill="url(#d)" opacity=".2099"/>
  <path d="m464.8 288.79h83.971a19.8 19.8 0 0 1 19.8 19.8v23.257a19.8 19.8 0 0 1 -19.8 19.8h-83.971a19.8 19.8 0 0 1 -19.8 -19.8v-23.257a19.8 19.8 0 0 1 19.8 -19.8" fill="url(#c)" opacity=".2099"/>
 </g>
</svg>
